# This file uses centimeters as units for non-parametric coordinates.

mtllib jewel01b.mtl
g default
v -0.933673 -0.420463 2.941730
v 0.607750 -0.148521 2.194430
v -1.447847 0.777928 2.941730
v 0.726191 0.667908 2.298056
v -0.867682 0.316150 -2.583517
v 0.793953 0.206130 -2.583517
v -0.531329 -0.167165 -2.437793
v 0.309045 -0.146278 -2.376649
v -1.392307 0.790581 -1.575920
v 1.104675 0.666419 -1.575920
v -0.901232 -0.364105 -1.575920
v 0.847548 -0.124704 -1.249731
v -1.870095 1.083806 1.412351
v 1.242250 0.973786 1.412351
v -1.154378 -0.594771 1.412351
v 0.890478 -0.193936 1.412351
vt 0.375000 0.000000
vt 0.625000 0.000000
vt 0.375000 0.250000
vt 0.625000 0.250000
vt 0.375000 0.500000
vt 0.625000 0.500000
vt 0.375000 0.750000
vt 0.625000 0.750000
vt 0.375000 1.000000
vt 0.625000 1.000000
vt 0.875000 0.000000
vt 0.875000 0.250000
vt 0.125000 0.000000
vt 0.125000 0.250000
vt 0.186602 0.250000
vt 0.375000 0.438398
vt 0.625000 0.438398
vt 0.813398 0.250000
vt 0.186602 0.000000
vt 0.375000 0.811602
vt 0.625000 0.811602
vt 0.813398 0.000000
vt 0.313579 0.250000
vt 0.375000 0.311421
vt 0.625000 0.311421
vt 0.686421 0.250000
vt 0.313579 0.000000
vt 0.375000 0.938579
vt 0.625000 0.938579
vt 0.686421 0.000000
vn 0.454451 -0.176742 0.873061
vn 0.376708 -0.026902 0.925941
vn 0.376708 -0.026902 0.925941
vn 0.287457 0.123335 0.949819
vn 0.165930 0.898276 0.406899
vn 0.073743 0.991843 0.103966
vn 0.101968 0.948224 0.300790
vn 0.035287 0.998219 0.048098
vn -0.019951 -0.301319 -0.953315
vn 0.026138 -0.442686 -0.896296
vn 0.026138 -0.442686 -0.896296
vn 0.073494 -0.578145 -0.812618
vn 0.024299 -0.999676 0.007527
vn 0.132058 -0.989433 -0.059861
vn 0.093928 -0.992860 -0.073529
vn 0.154695 -0.981968 -0.108661
vn 0.922179 -0.177404 0.343676
vn 0.945628 -0.267206 0.185442
vn 0.898108 -0.220085 0.380743
vn 0.936870 -0.282229 0.206450
vn -0.676542 -0.599689 -0.427392
vn -0.842827 -0.461942 -0.276138
vn -0.792864 -0.492501 -0.358900
vn -0.907227 -0.386168 -0.166772
vn 0.043836 0.977845 -0.204686
vn 0.052114 0.946366 -0.318865
vn 0.052533 0.906884 -0.418092
vn 0.059649 0.900886 -0.429937
vn 0.185909 -0.982149 0.028644
vn 0.192132 -0.980161 0.048677
vn 0.945820 -0.320136 -0.054198
vn 0.846366 -0.516906 -0.128346
vn 0.767918 -0.613818 -0.183109
vn 0.507499 -0.831324 -0.226595
vn -0.919230 -0.392302 0.033407
vn -0.919376 -0.392007 0.032823
vn 0.200948 -0.974162 0.103090
vn 0.210937 -0.974172 0.080589
vn -0.905428 -0.387267 0.173852
vn -0.904832 -0.388221 0.174823
s 1
g pCube1
usemtl initialShadingGroup
f 2/2/1 4/4/2 1/1/3
f 1/1/3 4/4/2 3/3/4
s 2
f 4/4/5 14/25/6 3/3/7
f 3/3/7 14/25/6 13/24/8
s 3
f 5/5/9 6/6/10 7/7/11
f 7/7/11 6/6/10 8/8/12
s 4
f 8/8/13 12/21/14 7/7/15
f 7/7/15 12/21/14 11/20/16
s 5
f 2/2/17 16/30/18 4/4/19
f 4/4/19 16/30/18 14/26/20
s 6
f 7/13/21 11/19/22 5/14/23
f 5/14/23 11/19/22 9/15/24
s 2
f 9/16/25 10/17/26 5/5/27
f 5/5/27 10/17/26 6/6/28
s 4
f 11/20/16 12/21/14 15/28/29
f 15/28/29 12/21/14 16/29/30
s 5
f 10/18/31 12/22/32 6/12/33
f 6/12/33 12/22/32 8/11/34
s 6
f 11/19/22 15/27/35 9/15/24
f 9/15/24 15/27/35 13/23/36
s 2
f 13/24/8 14/25/6 9/16/25
f 9/16/25 14/25/6 10/17/26
s 5
f 14/26/20 16/30/18 10/18/31
f 10/18/31 16/30/18 12/22/32
s 4
f 16/29/30 2/10/37 15/28/29
f 15/28/29 2/10/37 1/9/38
s 6
f 13/23/36 15/27/35 3/3/39
f 3/3/39 15/27/35 1/1/40
