# This file uses centimeters as units for non-parametric coordinates.

mtllib jewel01.mtl
g default
v -0.933673 -0.359558 2.941730
v 0.607750 -0.127341 2.194430
v -1.447847 0.663772 2.941730
v 0.726191 0.569824 2.298056
v -0.867682 0.269450 -2.583517
v 0.793953 0.175502 -2.583517
v -0.531329 -0.143262 -2.437793
v 0.309045 -0.125426 -2.376649
v -1.392307 0.674577 -1.575920
v 1.104675 0.568552 -1.575920
v -0.901232 -0.311433 -1.575920
v 0.847548 -0.107003 -1.249731
v -1.870095 0.924968 1.412351
v 1.242250 0.831019 1.412351
v -1.154378 -0.508403 1.412351
v 0.890478 -0.166122 1.412351
vt 0.375000 0.000000
vt 0.625000 0.000000
vt 0.375000 0.250000
vt 0.625000 0.250000
vt 0.375000 0.500000
vt 0.625000 0.500000
vt 0.375000 0.750000
vt 0.625000 0.750000
vt 0.375000 1.000000
vt 0.625000 1.000000
vt 0.875000 0.000000
vt 0.875000 0.250000
vt 0.125000 0.000000
vt 0.125000 0.250000
vt 0.186602 0.250000
vt 0.375000 0.438398
vt 0.625000 0.438398
vt 0.813398 0.250000
vt 0.186602 0.000000
vt 0.375000 0.811602
vt 0.625000 0.811602
vt 0.813398 0.000000
vt 0.313579 0.250000
vt 0.375000 0.311421
vt 0.625000 0.311421
vt 0.686421 0.250000
vt 0.313579 0.000000
vt 0.375000 0.938579
vt 0.625000 0.938579
vt 0.686421 0.000000
vn 0.451838 -0.205787 0.868040
vn 0.376657 -0.031500 0.925817
vn 0.376657 -0.031500 0.925817
vn 0.286649 0.144027 0.947148
vn 0.145548 0.922728 0.356917
vn 0.063109 0.994033 0.088974
vn 0.088287 0.961447 0.260432
vn 0.030146 0.998700 0.041092
vn -0.019623 -0.347062 -0.937637
vn 0.025236 -0.500521 -0.865357
vn 0.025236 -0.500521 -0.865357
vn 0.069317 -0.638570 -0.766435
vn 0.020751 -0.999764 0.006428
vn 0.113090 -0.992262 -0.051263
vn 0.080362 -0.994779 -0.062909
vn 0.132741 -0.986755 -0.093240
vn 0.916837 -0.206548 0.341685
vn 0.933334 -0.308849 0.183031
vn 0.890136 -0.255448 0.377364
vn 0.923312 -0.325727 0.203462
vn -0.635435 -0.659607 -0.401424
vn -0.811290 -0.520725 -0.265806
vn -0.759396 -0.552407 -0.343750
vn -0.883101 -0.440204 -0.162337
vn 0.037656 0.983700 -0.175832
vn 0.045144 0.960034 -0.276217
vn 0.045978 0.929509 -0.365924
vn 0.052287 0.924788 -0.376872
vn 0.159517 -0.986889 0.024578
vn 0.164945 -0.985417 0.041790
vn 0.928317 -0.367964 -0.053195
vn 0.807258 -0.577363 -0.122415
vn 0.719241 -0.673260 -0.171502
vn 0.452713 -0.868443 -0.202134
vn -0.894034 -0.446820 0.032492
vn -0.894213 -0.446503 0.031925
vn 0.172791 -0.980962 0.088645
vn 0.181380 -0.980969 0.069297
vn -0.881218 -0.441391 0.169204
vn -0.880523 -0.442421 0.170127
s 1
g pCube1
usemtl initialShadingGroup
f 2/2/1 4/4/2 1/1/3
f 1/1/3 4/4/2 3/3/4
s 2
f 4/4/5 14/25/6 3/3/7
f 3/3/7 14/25/6 13/24/8
s 3
f 5/5/9 6/6/10 7/7/11
f 7/7/11 6/6/10 8/8/12
s 4
f 8/8/13 12/21/14 7/7/15
f 7/7/15 12/21/14 11/20/16
s 5
f 2/2/17 16/30/18 4/4/19
f 4/4/19 16/30/18 14/26/20
s 6
f 7/13/21 11/19/22 5/14/23
f 5/14/23 11/19/22 9/15/24
s 2
f 9/16/25 10/17/26 5/5/27
f 5/5/27 10/17/26 6/6/28
s 4
f 11/20/16 12/21/14 15/28/29
f 15/28/29 12/21/14 16/29/30
s 5
f 10/18/31 12/22/32 6/12/33
f 6/12/33 12/22/32 8/11/34
s 6
f 11/19/22 15/27/35 9/15/24
f 9/15/24 15/27/35 13/23/36
s 2
f 13/24/8 14/25/6 9/16/25
f 9/16/25 14/25/6 10/17/26
s 5
f 14/26/20 16/30/18 10/18/31
f 10/18/31 16/30/18 12/22/32
s 4
f 16/29/30 2/10/37 15/28/29
f 15/28/29 2/10/37 1/9/38
s 6
f 13/23/36 15/27/35 3/3/39
f 3/3/39 15/27/35 1/1/40
